{
	"asset":{
		"generator":"Khronos glTF Blender I/O v4.2.70",
		"version":"2.0"
	},
	"extensionsUsed":[
		"KHR_materials_specular"
	],
	"scene":0,
	"scenes":[
		{
			"name":"Scene",
			"nodes":[
				2
			]
		}
	],
	"nodes":[
		{
			"mesh":0,
			"name":"Object_11",
			"translation":[
				-23.976993560791016,
				95.21278381347656,
				1067.11328125
			]
		},
		{
			"children":[
				0
			],
			"name":"OBJ.obj.cleaner.materialmerger.gles"
		},
		{
			"children":[
				1
			],
			"name":"Sketchfab_model",
			"rotation":[
				-0.70710688829422,
				0,
				0,
				0.7071066498756409
			],
			"scale":[
				0.009999999776482582,
				0.010000000707805157,
				0.010000000707805157
			]
		}
	],
	"materials":[
		{
			"doubleSided":true,
			"extensions":{
				"KHR_materials_specular":{
					"specularTexture":{
						"index":0
					}
				}
			},
			"name":"wire_088144225",
			"pbrMetallicRoughness":{
				"baseColorFactor":[
					0,
					0,
					0,
					1
				],
				"metallicFactor":0,
				"roughnessFactor":0.9169999957084656
			}
		},
		{
			"doubleSided":true,
			"name":"wire_204204204",
			"pbrMetallicRoughness":{
				"baseColorFactor":[
					0.00021957524586468935,
					0.00021957524586468935,
					0.00021957524586468935,
					1
				],
				"metallicFactor":0,
				"roughnessFactor":0.9167554974555969
			}
		}
	],
	"meshes":[
		{
			"name":"Object_9",
			"primitives":[
				{
					"attributes":{
						"POSITION":0,
						"NORMAL":1,
						"TEXCOORD_0":2
					},
					"indices":3,
					"material":0
				},
				{
					"attributes":{
						"POSITION":4,
						"NORMAL":5,
						"TEXCOORD_0":6
					},
					"indices":7,
					"material":1
				}
			]
		}
	],
	"textures":[
		{
			"sampler":0,
			"source":0
		}
	],
	"images":[
		{
			"mimeType":"image/png",
			"name":"Image_3",
			"uri":"Image_3.png"
		}
	],
	"accessors":[
		{
			"bufferView":0,
			"componentType":5126,
			"count":822844,
			"max":[
				1045.1561279296875,
				214.4479217529297,
				847.660400390625
			],
			"min":[
				-1189.6177978515625,
				-1065.8841552734375,
				-1067.11328125
			],
			"type":"VEC3"
		},
		{
			"bufferView":1,
			"componentType":5126,
			"count":822844,
			"type":"VEC3"
		},
		{
			"bufferView":2,
			"componentType":5126,
			"count":822844,
			"type":"VEC2"
		},
		{
			"bufferView":3,
			"componentType":5125,
			"count":2727657,
			"type":"SCALAR"
		},
		{
			"bufferView":4,
			"componentType":5126,
			"count":36049,
			"max":[
				620.4553833007812,
				76.71321105957031,
				160.3363037109375
			],
			"min":[
				-281.9510192871094,
				-200.4851837158203,
				-306.70440673828125
			],
			"type":"VEC3"
		},
		{
			"bufferView":5,
			"componentType":5126,
			"count":36049,
			"type":"VEC3"
		},
		{
			"bufferView":6,
			"componentType":5126,
			"count":36049,
			"type":"VEC2"
		},
		{
			"bufferView":7,
			"componentType":5123,
			"count":129570,
			"type":"SCALAR"
		}
	],
	"bufferViews":[
		{
			"buffer":0,
			"byteLength":9874128,
			"byteOffset":0,
			"target":34962
		},
		{
			"buffer":0,
			"byteLength":9874128,
			"byteOffset":9874128,
			"target":34962
		},
		{
			"buffer":0,
			"byteLength":6582752,
			"byteOffset":19748256,
			"target":34962
		},
		{
			"buffer":0,
			"byteLength":10910628,
			"byteOffset":26331008,
			"target":34963
		},
		{
			"buffer":0,
			"byteLength":432588,
			"byteOffset":37241636,
			"target":34962
		},
		{
			"buffer":0,
			"byteLength":432588,
			"byteOffset":37674224,
			"target":34962
		},
		{
			"buffer":0,
			"byteLength":288392,
			"byteOffset":38106812,
			"target":34962
		},
		{
			"buffer":0,
			"byteLength":259140,
			"byteOffset":38395204,
			"target":34963
		}
	],
	"samplers":[
		{
			"magFilter":9729,
			"minFilter":9987
		}
	],
	"buffers":[
		{
			"byteLength":38654344,
			"uri":"computerset.bin"
		}
	]
}
